<?xml version="1.0" encoding="UTF-8"?>
<svg id="Livello_1" xmlns="http://www.w3.org/2000/svg" version="1.1" viewBox="0 0 128 21">
  <!-- Generator: Adobe Illustrator 30.3.0, SVG Export Plug-In . SVG Version: 2.1.3 Build 182)  -->
  <defs>
    <style>
      .st0 {
        fill: #2563eb;
      }
    </style>
  </defs>
  <path class="st0" d="M94.88,5.41V.34c-.28-.02-.54-.05-.83-.05-1.98,0-3.78.47-5.34,1.38-1.57.92-2.81,2.16-3.69,3.69-.88,1.53-1.33,3.24-1.33,5.11v9.46h5.49v-9.46c0-.92.2-1.77.6-2.55.4-.77.97-1.4,1.7-1.87.72-.46,1.59-.7,2.57-.7.29,0,.56.03.83.07h0Z"/>
  <path class="st0" d="M48.19,1.71c-1.55-.92-3.36-1.38-5.36-1.38s-3.78.47-5.34,1.38c-1.21.71-2.23,1.63-3.03,2.72-.8-1.09-1.81-2-3.01-2.72-1.55-.92-3.36-1.38-5.36-1.38s-3.78.47-5.34,1.38c-1.57.92-2.81,2.17-3.69,3.71-.83,1.45-1.26,3.07-1.31,4.81h-.02v.3c0,.92-.2,1.77-.6,2.55-.4.77-.97,1.4-1.7,1.87-.72.46-1.59.7-2.57.7s-1.84-.24-2.57-.7c-.73-.47-1.3-1.09-1.7-1.87-.4-.78-.6-1.64-.6-2.55s.2-1.81.6-2.59c.4-.77.97-1.4,1.7-1.87.72-.46,1.59-.7,2.57-.7s1.84.24,2.6.72l2.77-4.39c-1.55-.92-3.36-1.38-5.36-1.38s-3.78.47-5.34,1.38c-1.57.92-2.81,2.17-3.69,3.71-.88,1.54-1.33,3.26-1.33,5.12s.45,3.58,1.33,5.11c.88,1.53,2.12,2.77,3.69,3.69,1.56.92,3.36,1.38,5.34,1.38s3.81-.47,5.36-1.38c.85-.5,1.59-1.11,2.24-1.8.66.7,1.41,1.31,2.27,1.81,1.56.92,3.36,1.38,5.34,1.38s3.81-.47,5.37-1.38c1.2-.71,2.21-1.62,3.01-2.71.81,1.08,1.82,1.99,3.03,2.71,1.56.92,3.36,1.38,5.34,1.38s3.81-.47,5.36-1.38c1.55-.92,2.78-2.16,3.67-3.69.88-1.53,1.33-3.25,1.33-5.11s-.45-3.58-1.33-5.12-2.12-2.79-3.67-3.7h0ZM30.33,13.09c-.4.77-.97,1.4-1.7,1.87-.72.46-1.59.7-2.57.7s-1.84-.24-2.57-.7c-.73-.47-1.3-1.09-1.7-1.87-.4-.78-.6-1.64-.6-2.55s.2-1.81.6-2.59c.4-.77.97-1.4,1.7-1.87.72-.46,1.59-.7,2.57-.7s1.84.24,2.57.7c.73.47,1.3,1.09,1.7,1.87.4.78.6,1.65.6,2.59s-.2,1.78-.6,2.55ZM47.09,13.09c-.4.77-.97,1.4-1.7,1.87-.72.46-1.59.7-2.57.7s-1.84-.24-2.57-.7c-.73-.47-1.3-1.09-1.7-1.87s-.6-1.64-.6-2.55.2-1.81.6-2.59c.4-.77.97-1.4,1.7-1.87.72-.46,1.59-.7,2.57-.7s1.84.24,2.57.7c.73.47,1.3,1.09,1.7,1.87s.6,1.65.6,2.59-.2,1.78-.6,2.55Z"/>
  <path class="st0" d="M78.7,1.71c-1.55-.92-3.36-1.38-5.36-1.38s-3.78.47-5.34,1.38c-1.57.92-2.81,2.17-3.69,3.71-.88,1.54-1.33,3.26-1.33,5.12s.44,3.55,1.31,5.06c-.24.03-.48.06-.74.06-.98,0-1.84-.24-2.57-.7-.73-.47-1.3-1.09-1.7-1.87s-.6-1.64-.6-2.55V1.08h-5.49v9.46c0,1.86.45,3.58,1.33,5.11.88,1.53,2.12,2.77,3.69,3.69,1.56.92,3.36,1.38,5.34,1.38.28,0,.55-.03.83-.05v-4.92c.88,1.48,2.09,2.69,3.62,3.59,1.56.92,3.36,1.38,5.34,1.38s3.81-.47,5.36-1.38c1.55-.92,2.78-2.16,3.67-3.69.88-1.53,1.33-3.25,1.33-5.11s-.45-3.58-1.33-5.12c-.88-1.54-2.12-2.79-3.67-3.7h0ZM77.6,13.09c-.4.77-.97,1.4-1.7,1.87-.72.46-1.59.7-2.57.7s-1.84-.24-2.57-.7c-.73-.47-1.3-1.09-1.7-1.87-.4-.78-.6-1.64-.6-2.55s.2-1.81.6-2.59c.4-.77.97-1.4,1.7-1.87.72-.46,1.59-.7,2.57-.7s1.84.24,2.57.7c.73.47,1.3,1.09,1.7,1.87.4.78.6,1.65.6,2.59s-.2,1.78-.6,2.55Z"/>
  <path class="st0" d="M106.82,9.4c-.99-.63-2.44-1.19-4.3-1.65-1.32-.34-1.8-.63-1.97-.81-.24-.25-.35-.48-.35-.72,0-.48.17-.8.53-1.02.4-.24.91-.36,1.54-.36.58,0,1.13.15,1.65.44.52.29,1.01.78,1.44,1.46l.17.27,4.06-3.1-.18-.23c-1-1.3-2.08-2.19-3.21-2.67-1.12-.47-2.48-.71-4.04-.71-2.27,0-4.07.58-5.37,1.73-1.31,1.16-1.97,2.62-1.97,4.35,0,.83.14,1.64.42,2.42.28.8.87,1.53,1.74,2.18.85.63,2.16,1.16,3.89,1.58.97.21,1.7.43,2.18.64.55.24.77.45.85.58.13.19.19.43.19.71,0,.47-.19.85-.57,1.17-.39.33-.98.49-1.75.49-1.48,0-2.9-.75-4.21-2.23l-.2-.22-3.75,3.42.2.22c2.11,2.26,4.82,3.4,8.06,3.4,1.44,0,2.75-.28,3.89-.83s2.06-1.32,2.73-2.28c.67-.97,1.02-2.08,1.02-3.29,0-.99-.19-1.9-.57-2.71-.39-.82-1.09-1.57-2.11-2.21v-.02Z"/>
</svg>